<?xml version="1.0" encoding="UTF-8" standalone="no"?>
<!-- The icon can be used freely in both personal and commercial projects with no attribution required, but always appreciated.
You may NOT sub-license, resell, rent, redistribute or otherwise transfer the icon without express written permission from iconmonstr.com -->

<svg
   xmlns:dc="http://purl.org/dc/elements/1.1/"
   xmlns:cc="http://creativecommons.org/ns#"
   xmlns:rdf="http://www.w3.org/1999/02/22-rdf-syntax-ns#"
   xmlns:svg="http://www.w3.org/2000/svg"
   xmlns="http://www.w3.org/2000/svg"
   xmlns:sodipodi="http://sodipodi.sourceforge.net/DTD/sodipodi-0.dtd"
   xmlns:inkscape="http://www.inkscape.org/namespaces/inkscape"
   version="1.1"
   x="0px"
   y="0px"
   width="128"
   height="128"
   viewBox="0 0 128 128"
   enable-background="new 0 0 512 512"
   xml:space="preserve"
   id="svg2"
   inkscape:version="0.91pre4 r13712"
   sodipodi:docname="menu.svg"><metadata
     id="metadata9"><rdf:RDF><cc:Work
         rdf:about=""><dc:format>image/svg+xml</dc:format><dc:type
           rdf:resource="http://purl.org/dc/dcmitype/StillImage" /><dc:title></dc:title></cc:Work></rdf:RDF></metadata><defs
     id="defs7" /><sodipodi:namedview
     pagecolor="#ffffff"
     bordercolor="#666666"
     borderopacity="1"
     objecttolerance="10"
     gridtolerance="10"
     guidetolerance="10"
     inkscape:pageopacity="0"
     inkscape:pageshadow="2"
     inkscape:window-width="1742"
     inkscape:window-height="902"
     id="namedview5"
     showgrid="false"
     fit-margin-top="0"
     fit-margin-left="0"
     fit-margin-right="0"
     fit-margin-bottom="0"
     inkscape:zoom="3.6875"
     inkscape:cx="23.220141"
     inkscape:cy="81.085898"
     inkscape:window-x="0"
     inkscape:window-y="0"
     inkscape:window-maximized="0"
     inkscape:current-layer="svg2"
     inkscape:showpageshadow="false" /><path
     id="plus-5-icon"
     d="m 97.453981,74.078136 -23.686214,0 0,23.685592 -18.291884,0 0,-23.685592 -23.686213,0 0,-18.291884 23.686213,0 0,-23.686213 18.291884,0 0,23.686213 23.686214,0 0,18.291884 z M 128,64 C 128,99.34633 99.34633,128 64,128 28.65367,128 0,99.34633 0,64 0,28.65367 28.65367,0 64,0 c 35.34633,0 64,28.65367 64,64 z m -12.42718,0 C 115.57282,35.493592 92.502369,12.427184 64,12.427184 35.493592,12.427184 12.427184,35.497942 12.427184,64 c 0,28.506408 23.070447,51.57282 51.572816,51.57282 28.506408,0 51.57282,-23.070762 51.57282,-51.57282 z"
     inkscape:connector-curvature="0"
     style="fill:#ffffff" /></svg>
